<svg xmlns="http://www.w3.org/2000/svg" fill="none" viewBox="0 0 48 48" id="Sad-Pepe-Frog--Streamline-Memes" height="48" width="48">
  <desc>
    Sad Pepe Frog Streamline Element: https://streamlinehq.com
  </desc>
  <path stroke="#000000" stroke-linecap="round" stroke-linejoin="round" d="m42 23.734 3.266 6.516M2.376 13.428l1.866 -1.098C4.242 6.073 9.314 1 15.572 1c2.94 0 5.62 1.12 7.634 2.958a9.107 9.107 0 0 1 6.467 -2.684c4.339 0 9.081 2.775 10.013 6.831 2.931 2.872 3.913 5.137 4.23 7.037" stroke-width="1"></path>
  <path stroke="#000000" stroke-linecap="round" stroke-linejoin="round" d="M42.37 34.625c2.9 -0.903 3.846 -2.572 2.9 -4.383 0 0 -3.608 2.611 -14.05 1.998 -4.653 -0.273 -15.852 -2.377 -19.659 -0.555 -2.845 1.362 -3.4 4.698 0.645 5.84 3.158 0.892 2.19 -0.773 17.08 0.892 4.436 0.385 9.232 0.42 12.697 -0.892 1.313 -0.496 2.45 -2.191 0.387 -2.9Z" stroke-width="1"></path>
  <path stroke="#000000" stroke-linecap="round" stroke-linejoin="round" d="M42.375 34.594c-13.02 2.965 -17.343 -1.065 -28.558 -0.098" stroke-width="1"></path>
  <path stroke="#000000" stroke-linecap="round" stroke-linejoin="round" d="M10.125 20.125c1.619 1.875 6.878 4.342 11.16 4.342 5.231 0 7.41 -2.421 7.41 -5.408 0 -1.039 -0.264 -2.01 -0.828 -2.834" stroke-width="1"></path>
  <path stroke="#000000" stroke-linecap="round" stroke-linejoin="round" d="M27.902 16.276c0 -1.825 -3.95 -3.968 -7.382 -3.63 -4.576 0.451 -5.543 2.191 -9.797 4.06 -4.254 1.87 -4.77 0.323 -5.156 1.612 -0.387 1.29 1.23 2.175 4.383 1.805 5.994 0 8.83 -3.847 17.953 -3.847Z" stroke-width="1"></path>
  <path stroke="#000000" stroke-linecap="round" stroke-linejoin="round" d="M2.431 38.502c7.682 3.95 16.9 5.789 26.556 4.17 3.574 -0.599 6.595 -2.179 8.818 -4.17" stroke-width="1"></path>
  <path stroke="#000000" stroke-linecap="round" stroke-linejoin="round" d="M32.219 41.828c2.527 0.548 5.337 2.965 5.832 5.172" stroke-width="1"></path>
  <path stroke="#000000" stroke-linecap="round" stroke-linejoin="round" d="M11.592 10.466C15.597 7.393 21.961 7.61 26.62 9.97c1.372 -1.886 7.527 -2.962 13.997 -0.603" stroke-width="1"></path>
  <path stroke="#000000" stroke-linecap="round" stroke-linejoin="round" d="M22.583 3.43c1.243 1.206 3.529 3.732 3.002 6.102 1.976 0.951 3.926 3.508 2.884 7.843" stroke-width="1"></path>
  <path stroke="#000000" stroke-linecap="round" stroke-linejoin="round" d="M28.189 16.775c0.343 0.694 0.506 1.468 0.506 2.284 0 0.85 -0.176 1.653 -0.549 2.368 2.291 1.55 6.195 3.04 9.574 3.04 5.232 0 7.41 -2.421 7.41 -5.408 0 -1.04 -0.222 -1.97 -0.786 -2.793" stroke-width="1"></path>
  <path stroke="#000000" stroke-linecap="round" stroke-linejoin="round" d="M36.988 12.646c3.432 -0.338 7.383 1.805 7.383 3.63 -5.039 0 -8.16 1.174 -10.954 2.224 -1.604 0.603 -3.1 1.166 -4.79 1.443a5.6 5.6 0 0 0 0.068 -0.884c0 -0.984 -0.237 -1.907 -0.741 -2.702 1.094 -0.523 1.96 -1.029 2.753 -1.493 1.836 -1.075 3.285 -1.923 6.281 -2.218Z" stroke-width="1"></path>
  <path fill="#000000" fill-rule="evenodd" d="M38.825 21.618a1.525 1.525 0 1 0 0 3.05 1.525 1.525 0 0 0 0 -3.05Z" clip-rule="evenodd" stroke-width="1"></path>
  <path fill="#000000" fill-rule="evenodd" d="M22.196 21.618a1.525 1.525 0 1 0 0 3.05 1.525 1.525 0 0 0 0 -3.05Z" clip-rule="evenodd" stroke-width="1"></path>
</svg>